<?xml version="1.0" encoding="utf-8"?>
<!-- Generator: Adobe Illustrator 25.4.0, SVG Export Plug-In . SVG Version: 6.00 Build 0)  -->
<svg version="1.1" xmlns="http://www.w3.org/2000/svg" xmlns:xlink="http://www.w3.org/1999/xlink" x="0px" y="0px"
	 viewBox="0 0 228 228" style="enable-background:new 0 0 228 228;" xml:space="preserve">
<style type="text/css">
	.st0{fill:#010101;}
	.st1{fill:#FFFFFF;}
	.st2{fill:#41ADE2;}
</style>
<g id="Layer_1">
</g>
<g id="Isolation_Mode">
	<g>
		
			<rect x="1.5" y="1.5" transform="matrix(-1 -1.224647e-16 1.224647e-16 -1 228.0005 228.0004)" class="st0" width="225" height="225"/>
		<path class="st1" d="M228,228L0,228V0h228L228,228z M3,225l222,0l0-222H3V225z"/>
	</g>
	<g>
		
			<rect x="11.5" y="11.5" transform="matrix(-9.065481e-15 1 -1 -9.065481e-15 228.0004 -2.584851e-04)" class="st0" width="205" height="205"/>
		<path class="st1" d="M218,218H10V10h208V218z M13,215h202V13H13V215z"/>
	</g>
	<g>
		<path class="st1" d="M60.97,54.45V37.27h3.42l4.07,12.16c0.38,1.13,0.65,1.98,0.82,2.54c0.2-0.62,0.5-1.54,0.91-2.75l4.11-11.95
			h3.06v17.18h-2.19V40.07l-4.99,14.38h-2.05l-4.97-14.62v14.62H60.97z"/>
		<path class="st1" d="M79.15,54.45l6.6-17.18h2.45l7.03,17.18h-2.59l-2-5.2h-7.18l-1.89,5.2H79.15z M84.11,47.39h5.82l-1.79-4.76
			c-0.55-1.45-0.95-2.63-1.22-3.56c-0.22,1.1-0.53,2.2-0.93,3.28L84.11,47.39z"/>
		<path class="st1" d="M97.04,54.45V37.27h5.92c1.34,0,2.36,0.08,3.06,0.25c0.98,0.23,1.82,0.64,2.52,1.23
			c0.91,0.77,1.58,1.74,2.03,2.94s0.67,2.55,0.67,4.08c0,1.3-0.15,2.46-0.46,3.47s-0.7,1.84-1.17,2.5s-1,1.18-1.56,1.56
			s-1.25,0.67-2.05,0.86s-1.72,0.29-2.76,0.29H97.04z M99.32,52.42h3.67c1.13,0,2.02-0.11,2.67-0.32s1.16-0.51,1.54-0.89
			c0.54-0.54,0.96-1.26,1.26-2.17s0.45-2.01,0.45-3.31c0-1.8-0.29-3.18-0.88-4.14s-1.31-1.61-2.15-1.94
			c-0.61-0.23-1.59-0.35-2.94-0.35h-3.61V52.42z"/>
		<path class="st1" d="M114.42,54.45V37.27h12.42v2.03H116.7v5.26h9.5v2.02h-9.5v5.85h10.55v2.03H114.42z"/>
		<path class="st1" d="M136.96,54.45V37.27h6.45c1.31,0,2.37,0.17,3.16,0.52s1.41,0.88,1.86,1.61s0.67,1.48,0.67,2.27
			c0,0.73-0.2,1.43-0.6,2.07s-1,1.17-1.8,1.57c1.04,0.3,1.84,0.82,2.4,1.56s0.84,1.6,0.84,2.6c0,0.8-0.17,1.55-0.51,2.24
			s-0.76,1.22-1.26,1.6s-1.13,0.66-1.88,0.85s-1.68,0.29-2.77,0.29H136.96z M139.23,44.49h3.71c1.01,0,1.73-0.07,2.17-0.2
			c0.58-0.17,1.01-0.46,1.31-0.86s0.44-0.9,0.44-1.5c0-0.57-0.14-1.07-0.41-1.51s-0.66-0.73-1.17-0.89s-1.38-0.24-2.61-0.24h-3.43
			V44.49z M139.23,52.42h4.28c0.73,0,1.25-0.03,1.55-0.08c0.52-0.09,0.96-0.25,1.31-0.47s0.64-0.54,0.87-0.96s0.34-0.9,0.34-1.45
			c0-0.64-0.16-1.2-0.49-1.67s-0.78-0.8-1.37-1s-1.42-0.29-2.51-0.29h-3.97V52.42z"/>
		<path class="st1" d="M157.9,54.45v-7.28l-6.62-9.9h2.77l3.39,5.18c0.62,0.97,1.21,1.94,1.75,2.91c0.52-0.9,1.14-1.91,1.88-3.04
			l3.33-5.05h2.65l-6.86,9.9v7.28H157.9z"/>
	</g>
	<g>
		<path class="st1" d="M107.04,105.1c0,6.57-2.11,11.25-6.33,14.06c-3.94,2.63-8.86,3.94-14.77,3.94c-5.63,0-10.41-1.31-14.34-3.94
			c-4.22-2.81-6.33-7.5-6.33-14.06v-3.94h9.7v5.34c0,4.32,1.12,7.22,3.38,8.72c1.96,1.31,4.36,1.97,7.17,1.97
			c3.38,0,6.04-0.65,8.02-1.97c2.53-1.69,3.8-4.97,3.8-9.84V68.26h9.7V105.1z"/>
		<path class="st1" d="M129.4,91.32h28.69v5.34H129.4v21.09h33.33v5.34H119.7V68.26h40.92v5.34H129.4V91.32z"/>
	</g>
	<g>
		<g>
			<path class="st2" d="M108.94,130.66v54.84H97.13l-21.94-41.06h-0.42v41.06h-9.7v-54.84h11.81l21.94,41.06h0.42v-41.06H108.94z"/>
			<path class="st2" d="M162.94,130.66v54.84h-11.81l-21.94-41.06h-0.42v41.06h-9.7v-54.84h11.81l21.94,41.06h0.42v-41.06H162.94z"
				/>
		</g>
	</g>
</g>
</svg>
